# xmcd
#
# Track frame offsets: 
#        150
#        16585
#        32692
#        47897
#        59652
#        74182
#        92777
#        107680
#        123132
#        139702
#        155675
#        170747
#        184082
#        202482
#
# Disc length: 2883 seconds
#
# Revision: 2
# Processed by: cddbd v1.5.2PL0 Copyright (c) Steve Scherf et al.
# Submitted via: ExactAudioCopyFreeDBPlugin 1.0
#
DISCID=d20b410e
DTITLE=Various Artist - Mr. Music Country 11-97
DYEAR=1900
DGENRE=Country
TTITLE0=Billy Ray Cyrus - Trail of Tears
TTITLE1=Mark Wills - Squeeze Box
TTITLE2=Melba Montgomery - These Old Walls
TTITLE3=John Anderson - The Fall
TTITLE4=H.P. Axtell - Keep the Cold Away
TTITLE5=Kathy Mattea - 455 Rocket
TTITLE6=Sammy Kershaw - hese Flowers
TTITLE7=Kim Richey - To Tell the Truth
TTITLE8=Davis Daniel - I'm Not Listening Anymore
TTITLE9=Harley Allen - In Your Loneliness
TTITLE10=Cori Brewster - Kicking Down the Door to Your Heart
TTITLE11=Toby Keith - Jacky Don Tucker (Play by the Rules Miss All the
TTITLE11=Fun)
TTITLE12=Terri Clark - Keeper of the Flame
TTITLE13=Wesley Dennis - That Look Was Worth a Thousand Words
EXTD=
EXTT0=
EXTT1=
EXTT2=
EXTT3=
EXTT4=
EXTT5=
EXTT6=
EXTT7=
EXTT8=
EXTT9=
EXTT10=
EXTT11=
EXTT12=
EXTT13=
PLAYORDER=
